{"title":"Bee Gees - One Night Only[1997]DvDrip - Harrharrr","uid":5191170,"size":2449510647,"categoryP":"video","categoryS":"music_videos","magnet":"?xt=urn:btih:8ad7ac8d6ea8a47e97ae8ac847d6a29d81bad725&amp;dn=Bee+Gees+-+One+Night+Only%5B1997%5DDvDrip+-+Harrharrr&amp;tr=udp%3A%2F%2Ftracker.openbittorrent.com%3A80&amp;tr=udp%3A%2F%2Fopen.demonii.com%3A1337&amp;tr=udp%3A%2F%2Ftracker.coppersurfer.tk%3A6969&amp;tr=udp%3A%2F%2Fexodus.desync.com%3A6969","seeders":1,"leechers":0,"uploader":"Harrharrr","files":-1,"time":1259695623,"description":"Enjoy this amazing Concert from the Bee Gees, thought it was about time to upload this one now that they are returning after the terrible loss of Maurice. \nFile turned out quite big due to quality encoding (included the code log file for those interested) + the info below.\n\n\n\nGeneral\nComplete name                    : K:HQ Music &amp; StuffBee Gees - One Night Only[1997]DvDrip - HarrharrrBee Gees - One Night Only[1997]DvDrip - Harrharrr.avi\nFormat                           : AVI\nFormat/Info                      : Audio Video Interleave\nFormat profile                   : OpenDML\nFile size                        : 2.28 GiB\nDuration                         : 1h 50mn\nOverall bit rate                 : 2 951 Kbps\nWriting application              : VirtualDubMod 1.5.4.1 (build 2178/release)\nWriting library                  : VirtualDubMod build 2178/release\n\nVideo\nID                               : 0\nFormat                           : MPEG-4 Visual\nFormat profile                   : AdvancedSimple@L5\nFormat settings, BVOP            : Yes\nFormat settings, QPel            : No\nFormat settings, GMC             : No warppoints\nFormat settings, Matrix          : Custom\nCodec ID                         : XVID\nCodec ID/Hint                    : XviD\nDuration                         : 1h 50mn\nBit rate                         : 1 431 Kbps\nWidth                            : 720 pixels\nHeight                           : 416 pixels\nDisplay aspect ratio             : 16/9\nFrame rate                       : 29.970 fps\nResolution                       : 24 bits\nColorimetry                      : 4:2:0\nScan type                        : Progressive\nBits/(Pixel*Frame)               : 0.159\nStream size                      : 1.11 GiB (49%)\nWriting library                  : XviD 1.2.1 (UTC 2008-12-04)\n\nAudio\nID                               : 1\nFormat                           : DTS\nFormat/Info                      : Digital Theater Systems\nCodec ID                         : 2001\nCodec ID/Info                    : Digital Theater Systems\nDuration                         : 1h 50mn\nBit rate mode                    : Constant\nBit rate                         : 1 510 Kbps\nChannel(s)                       : 6 channels\nChannel positions                : Front: L C R, Surround: L R, LFE\nSampling rate                    : 48.0 KHz\nResolution                       : 20 bits\nStream size                      : 1.17 GiB (51%)\nAlignment                        : Split accross interleaves\nInterleave, duration             : 96 ms (2.88 video frames)\nInterleave, preload duration     : 96 ms\nLanguage                         : English\n\nTo the best group ever &lt;3","torrent":{"xt":"urn:btih:8ad7ac8d6ea8a47e97ae8ac847d6a29d81bad725","amp;dn":"Bee+Gees+-+One+Night+Only%5B1997%5DDvDrip+-+Harrharrr","amp;tr":["udp%3A%2F%2Ftracker.openbittorrent.com%3A80","udp%3A%2F%2Fopen.demonii.com%3A1337","udp%3A%2F%2Ftracker.coppersurfer.tk%3A6969","udp%3A%2F%2Fexodus.desync.com%3A6969"],"infoHash":"8ad7ac8d6ea8a47e97ae8ac847d6a29d81bad725","infoHashBuffer":{"type":"Buffer","data":[138,215,172,141,110,168,164,126,151,174,138,200,71,214,162,157,129,186,215,37]},"announce":[],"urlList":[]}}